<svg width="118" height="40" viewBox="0 0 118 40" fill="none" xmlns="http://www.w3.org/2000/svg">
<path d="M40.84 3.68V4.48C40.2533 4.74667 39.6267 5.26667 38.96 6.04C38.2933 6.81333 37.72 8.01333 37.24 9.64L30.32 32.04C30.0533 32.0133 29.7733 32 29.48 32C29.1867 31.9733 28.88 31.96 28.56 31.96C28.2933 31.96 28 31.9733 27.68 32C27.3867 32 27.1067 32.0133 26.84 32.04L18.44 6.48C18.2 5.73333 17.8933 5.22667 17.52 4.96C17.1733 4.66666 16.7733 4.50667 16.32 4.48V3.68C17.1467 3.70667 18.12 3.73333 19.24 3.76C20.36 3.78667 21.4933 3.8 22.64 3.8C23.84 3.8 24.9733 3.78667 26.04 3.76C27.1067 3.73333 27.9733 3.70667 28.64 3.68V4.48C27.8133 4.50667 27.1733 4.6 26.72 4.76C26.2667 4.92 26 5.24 25.92 5.72C25.8667 6.17333 26 6.88 26.32 7.84L31.88 24.84L30.84 26.88L35.12 13.24C35.8133 11.0533 36.1467 9.33333 36.12 8.08C36.0933 6.8 35.7733 5.89333 35.16 5.36C34.5733 4.8 33.7333 4.50667 32.64 4.48V3.68C33.6267 3.70667 34.5067 3.73333 35.28 3.76C36.08 3.78667 36.9067 3.8 37.76 3.8C38.32 3.8 38.8667 3.78667 39.4 3.76C39.96 3.73333 40.44 3.70667 40.84 3.68ZM12.12 3.68V4.48C11.6133 4.56 11.2667 4.77333 11.08 5.12C10.8933 5.46666 10.8267 5.89333 10.88 6.4C10.96 6.88 11.08 7.36 11.24 7.84L17.28 25.24L16.2 26.8L21.16 12.84L21.72 13.96L15.52 32.04C15.2533 32.0133 14.96 32 14.64 32C14.3467 31.9733 14.0533 31.96 13.76 31.96C13.4667 31.96 13.1733 31.9733 12.88 32C12.5867 32 12.3067 32.0133 12.04 32.04L2.92 7.04C2.57333 6.08 2.17333 5.42667 1.72 5.08C1.26667 4.70667 0.853333 4.50667 0.48 4.48V3.68C1.33333 3.70667 2.36 3.73333 3.56 3.76C4.76 3.78667 5.90667 3.8 7 3.8C8.09333 3.8 9.08 3.78667 9.96 3.76C10.84 3.73333 11.56 3.70667 12.12 3.68ZM59.9241 11.28V12.12C59.4174 12.28 58.9241 12.6133 58.4441 13.12C57.9907 13.6267 57.5507 14.5067 57.1241 15.76L51.8041 31.12L50.0441 34.84L40.8841 14.36C40.4307 13.3467 39.9907 12.72 39.5641 12.48C39.1374 12.24 38.7774 12.12 38.4841 12.12V11.28C39.4707 11.36 40.4841 11.4267 41.5241 11.48C42.5641 11.5067 43.5507 11.52 44.4841 11.52C45.6574 11.52 46.6974 11.4933 47.6041 11.44C48.5107 11.3867 49.3641 11.3333 50.1641 11.28V12.12C49.6574 12.12 49.1774 12.1467 48.7241 12.2C48.2707 12.2533 47.9507 12.4133 47.7641 12.68C47.6041 12.92 47.6574 13.36 47.9241 14L53.0041 26.16L52.6041 26.44L55.0441 19.36C55.6041 17.7333 55.8441 16.4 55.7641 15.36C55.6841 14.32 55.3774 13.5333 54.8441 13C54.3107 12.4667 53.6307 12.1733 52.8041 12.12V11.28C53.2041 11.3067 53.6441 11.3333 54.1241 11.36C54.6307 11.3867 55.1241 11.4133 55.6041 11.44C56.0841 11.44 56.4974 11.44 56.8441 11.44C57.3507 11.44 57.9107 11.4267 58.5241 11.4C59.1374 11.3733 59.6041 11.3333 59.9241 11.28ZM51.8041 31.12L50.2041 35.68C49.9641 36.3467 49.6974 36.92 49.4041 37.4C49.1374 37.88 48.8174 38.2667 48.4441 38.56C48.0707 38.8533 47.5907 39.08 47.0041 39.24C46.4441 39.4267 45.7241 39.52 44.8441 39.52C44.1507 39.52 43.4174 39.4 42.6441 39.16C41.8974 38.9467 41.2574 38.5867 40.7241 38.08C40.2174 37.5733 39.9641 36.8933 39.9641 36.04C39.9641 35.16 40.2841 34.4533 40.9241 33.92C41.5641 33.4133 42.4307 33.16 43.5241 33.16C44.5107 33.16 45.2974 33.3867 45.8841 33.84C46.4974 34.2933 46.8041 34.9733 46.8041 35.88C46.8041 36.44 46.6174 36.9867 46.2441 37.52C45.8707 38.0533 45.2841 38.4533 44.4841 38.72C44.6707 38.7467 44.8707 38.76 45.0841 38.76C45.3241 38.7867 45.5107 38.8 45.6441 38.8C46.4707 38.8 47.2041 38.5333 47.8441 38C48.4841 37.4933 48.9907 36.6933 49.3641 35.6L50.7641 31.36L51.8041 31.12ZM75.2206 10.72C76.1273 10.72 76.8473 10.92 77.3806 11.32C77.914 11.6933 78.3006 12.1867 78.5406 12.8C78.7806 13.3867 78.9006 13.9733 78.9006 14.56C78.9006 15.6533 78.5806 16.5333 77.9406 17.2C77.3273 17.8667 76.514 18.2 75.5006 18.2C74.434 18.2 73.6206 17.96 73.0606 17.48C72.5006 16.9733 72.2206 16.3067 72.2206 15.48C72.2206 14.6533 72.394 13.9733 72.7406 13.44C73.114 12.9067 73.5673 12.4533 74.1006 12.08C73.7006 12.0267 73.314 12.08 72.9406 12.24C72.514 12.3467 72.114 12.5467 71.7406 12.84C71.3673 13.1333 71.0473 13.48 70.7806 13.88C70.514 14.28 70.3006 14.72 70.1406 15.2C70.0073 15.6533 69.9406 16.12 69.9406 16.6V27.88C69.9406 29.16 70.2206 30.0267 70.7806 30.48C71.3673 30.9333 72.2873 31.16 73.5406 31.16V32C72.9273 31.9733 72.0206 31.9467 70.8206 31.92C69.6206 31.8667 68.3806 31.84 67.1006 31.84C65.954 31.84 64.794 31.8667 63.6206 31.92C62.474 31.9467 61.6206 31.9733 61.0606 32V31.16C61.9406 31.16 62.554 30.96 62.9006 30.56C63.274 30.16 63.4606 29.4 63.4606 28.28V15.64C63.4606 14.44 63.2873 13.56 62.9406 13C62.594 12.4133 61.9673 12.12 61.0606 12.12V11.28C61.914 11.36 62.7406 11.4 63.5406 11.4C64.7406 11.4 65.874 11.36 66.9406 11.28C68.034 11.1733 69.034 11.0267 69.9406 10.84V14.12C70.2606 13.4267 70.674 12.8267 71.1806 12.32C71.714 11.8133 72.314 11.4267 72.9806 11.16C73.674 10.8667 74.4206 10.72 75.2206 10.72ZM88.6859 4.76V11.28H93.0059V12.08H88.6859V28.44C88.6859 29.1067 88.8059 29.5867 89.0459 29.88C89.2859 30.1467 89.6459 30.28 90.1259 30.28C90.5259 30.28 90.9393 30.1467 91.3659 29.88C91.8193 29.6133 92.2326 29.16 92.6059 28.52L93.2459 28.92C92.7393 30.0133 92.0326 30.8933 91.1259 31.56C90.2459 32.2267 89.0859 32.56 87.6459 32.56C86.7659 32.56 85.9793 32.44 85.2859 32.2C84.6193 31.9867 84.0593 31.6533 83.6059 31.2C83.0193 30.6133 82.6326 29.8933 82.4459 29.04C82.2859 28.16 82.2059 27.0267 82.2059 25.64V12.08H79.0059V11.28H82.2059V6.28C83.4593 6.28 84.6059 6.16 85.6459 5.92C86.7126 5.68 87.7259 5.29333 88.6859 4.76ZM102.709 0.719997V14.08C103.376 12.8533 104.256 11.9867 105.349 11.48C106.469 10.9733 107.749 10.72 109.189 10.72C110.363 10.72 111.296 10.8667 111.989 11.16C112.709 11.4533 113.256 11.8267 113.629 12.28C114.056 12.7867 114.363 13.44 114.549 14.24C114.736 15.04 114.829 16.12 114.829 17.48V28.28C114.829 29.4 115.003 30.16 115.349 30.56C115.723 30.96 116.349 31.16 117.229 31.16V32C116.723 31.9733 115.936 31.9467 114.869 31.92C113.829 31.8667 112.803 31.84 111.789 31.84C110.723 31.84 109.683 31.8667 108.669 31.92C107.656 31.9467 106.883 31.9733 106.349 32V31.16C107.096 31.16 107.616 30.96 107.909 30.56C108.203 30.16 108.349 29.4 108.349 28.28V15.56C108.349 14.9467 108.283 14.4267 108.149 14C108.016 13.5467 107.789 13.2133 107.469 13C107.176 12.76 106.736 12.64 106.149 12.64C105.536 12.64 104.963 12.8 104.429 13.12C103.923 13.4133 103.509 13.8533 103.189 14.44C102.869 15 102.709 15.6533 102.709 16.4V28.28C102.709 29.4 102.856 30.16 103.149 30.56C103.469 30.96 103.989 31.16 104.709 31.16V32C104.229 31.9733 103.509 31.9467 102.549 31.92C101.589 31.8667 100.603 31.84 99.5894 31.84C98.5227 31.84 97.4294 31.8667 96.3094 31.92C95.216 31.9467 94.3894 31.9733 93.8294 32V31.16C94.7094 31.16 95.3227 30.96 95.6694 30.56C96.0427 30.16 96.2294 29.4 96.2294 28.28V5.52C96.2294 4.32 96.056 3.44 95.7094 2.88C95.3894 2.29333 94.7627 2 93.8294 2V1.16C94.6827 1.24 95.5094 1.28 96.3094 1.28C97.536 1.28 98.6827 1.24 99.7494 1.16C100.816 1.05333 101.803 0.906665 102.709 0.719997Z" fill="#2E3540"/>
</svg>
